# xmcd CD database file
#
# Track frame offsets:
#	193
#	16238
#	40195
#	58098
#	72755
#	92030
#	130838
#	151243
#
# Disc length: 2425 seconds
#
# Revision: 2
# Processed by: cddbd v1.4PL0 Copyright (c) Steve Scherf et al.
# Submitted via: CDex 1.40Beta9
#
DISCID=5f097708
DTITLE=B.B. King - To Know You Is To Love You
DYEAR=1973
DGENRE=Blues
TTITLE0=I Like To Live The Love
TTITLE1=Respect Yourself
TTITLE2=Who Are You
TTITLE3=Love
TTITLE4=I Can´t Leave
TTITLE5=To Know You Is To Love You
TTITLE6=Oh To Me
TTITLE7=Thank You For Loving The Blues
EXTD=YEAR: 1973 ID3G: 0
EXTT0=
EXTT1=
EXTT2=
EXTT3=
EXTT4=
EXTT5=
EXTT6=
EXTT7=
PLAYORDER=
